G04 ================== begin FILE IDENTIFICATION RECORD ==================*
G04 Layout Name:  RING_COUNTER.brd*
G04 Film Name:    Silkscreen_Top*
G04 File Format:  Gerber RS274X*
G04 File Origin:  Cadence Allegro 17.2-060*
G04 Origin Date:  Thu Jan 28 11:57:22 2021*
G04 *
G04 Layer:  BOARD GEOMETRY/OUTLINE*
G04 Layer:  REF DES/SILKSCREEN_TOP*
G04 Layer:  PACKAGE GEOMETRY/SILKSCREEN_TOP*
G04 *
G04 Offset:    (0.0000 0.0000)*
G04 Mirror:    No*
G04 Mode:      Positive*
G04 Rotation:  0*
G04 FullContactRelief:  No*
G04 UndefLineWidth:     0.1000*
G04 ================== end FILE IDENTIFICATION RECORD ====================*
%FSLAX55Y55*MOMM*%
%IR0*IPPOS*OFA0.00000B0.00000*MIA0B0*SFA1.00000B1.00000*%
%ADD10C,.1*%
G75*
%LPD*%
G75*
G54D10*
G01X1053060Y4675400D02*
X1061100Y4662700D01*
X1070750Y4654230D01*
X1082010Y4650000D01*
X1094880Y4654230D01*
X1104530Y4662700D01*
X1114190Y4675400D01*
X1117400Y4692330D01*
Y4777000D01*
G01X1214770Y4650000D02*
Y4777000D01*
X1195470Y4751600D01*
G01Y4650000D02*
X1234070D01*
G01X1270000Y4826000D02*
X1016000D01*
Y5334000D01*
X1270000D01*
Y4826000D01*
G01X2474840Y4077000D02*
Y3985980D01*
X2481270Y3966930D01*
X2494140Y3954230D01*
X2510230Y3950000D01*
X2526320Y3954230D01*
X2539190Y3966930D01*
X2545620Y3985980D01*
Y4077000D01*
G01X2639770Y3950000D02*
Y4077000D01*
X2620470Y4051600D01*
G01Y3950000D02*
X2659070D01*
G01X3023400Y4134500D02*
Y6039500D01*
X2464600D01*
Y4134500D01*
X2617000D01*
X2680500Y4198000D01*
X2807500D01*
X2871000Y4134500D01*
X3023400D01*
G01X3295620Y2916420D02*
X3285970Y2922770D01*
X3274710Y2927000D01*
X3261840D01*
X3247360Y2920650D01*
X3236100Y2910070D01*
X3228060Y2897370D01*
X3221620Y2876200D01*
X3220010Y2857150D01*
X3223230Y2838100D01*
X3228060Y2825400D01*
X3237710Y2812700D01*
X3248970Y2804230D01*
X3260230Y2800000D01*
X3271490D01*
X3282750Y2804230D01*
X3292400Y2810580D01*
X3300450Y2819050D01*
G01X3389770Y2800000D02*
Y2927000D01*
X3370470Y2901600D01*
G01Y2800000D02*
X3409070D01*
G01X4002000Y2650000D02*
G03I-254000J0D01*
G01X4103060Y4275000D02*
Y4402000D01*
X4143270D01*
X4156140Y4395650D01*
X4164190Y4387180D01*
X4167400Y4370250D01*
X4164190Y4353320D01*
X4154530Y4342730D01*
X4143270Y4336380D01*
X4103060D01*
G01X4143270D02*
X4167400Y4275000D01*
G01X4229380Y4300400D02*
X4239030Y4285580D01*
X4251900Y4277120D01*
X4266380Y4275000D01*
X4279250Y4277120D01*
X4292120Y4287700D01*
X4300160Y4300400D01*
X4301770Y4313100D01*
X4298550Y4327910D01*
X4287290Y4338500D01*
X4276030Y4342730D01*
X4261550D01*
G01X4276030D02*
X4285680Y4349080D01*
X4293730Y4359660D01*
X4296940Y4372370D01*
X4293730Y4385070D01*
X4285680Y4395650D01*
X4271200Y4402000D01*
X4256730Y4399880D01*
X4242250Y4391420D01*
G01X3748000Y3702400D02*
Y4413600D01*
X4002000D01*
Y3702400D01*
X3748000D01*
G01X5449840Y4252000D02*
Y4160980D01*
X5456270Y4141930D01*
X5469140Y4129230D01*
X5485230Y4125000D01*
X5501320Y4129230D01*
X5514190Y4141930D01*
X5520620Y4160980D01*
Y4252000D01*
G01X5584200Y4230830D02*
X5593860Y4243530D01*
X5605120Y4249880D01*
X5617990Y4252000D01*
X5634070Y4247770D01*
X5645340Y4237180D01*
X5648550Y4224490D01*
X5646940Y4211780D01*
X5640510Y4201200D01*
X5608340Y4180030D01*
X5593860Y4165220D01*
X5584200Y4144050D01*
X5580990Y4125000D01*
X5648550D01*
G01X5998400Y4346400D02*
X5846000D01*
X5782500Y4416250D01*
X5655500D01*
X5592000Y4346400D01*
X5439600D01*
Y6568900D01*
X5998400D01*
Y4346400D01*
G01X7602070Y2055600D02*
Y2182600D01*
X7634240D01*
X7647110Y2176250D01*
X7656760Y2167780D01*
X7664810Y2155090D01*
X7671240Y2140260D01*
X7672850Y2119100D01*
X7671240Y2097930D01*
X7664810Y2083110D01*
X7656760Y2070410D01*
X7647110Y2061950D01*
X7634240Y2055600D01*
X7602070D01*
G01X7767000D02*
Y2182600D01*
X7747700Y2157200D01*
G01Y2055600D02*
X7786300D01*
G01X7896540Y2182600D02*
X7883670Y2178370D01*
X7874020Y2167780D01*
X7867580Y2155090D01*
X7862760Y2138150D01*
X7861150Y2119100D01*
X7862760Y2100050D01*
X7867580Y2083110D01*
X7874020Y2070410D01*
X7883670Y2059830D01*
X7896540Y2055600D01*
X7909410Y2059830D01*
X7919060Y2070410D01*
X7925500Y2083110D01*
X7930320Y2100050D01*
X7931930Y2119100D01*
X7930320Y2138150D01*
X7925500Y2155090D01*
X7919060Y2167780D01*
X7909410Y2178370D01*
X7896540Y2182600D01*
G01X8529000Y1827000D02*
G03I-254000J0D01*
G01X7666840Y2830600D02*
Y2957600D01*
X7699010D01*
X7711880Y2951250D01*
X7721530Y2942780D01*
X7729580Y2930090D01*
X7736010Y2915260D01*
X7737620Y2894100D01*
X7736010Y2872930D01*
X7729580Y2858110D01*
X7721530Y2845410D01*
X7711880Y2836950D01*
X7699010Y2830600D01*
X7666840D01*
G01X7804420Y2845410D02*
X7815680Y2834830D01*
X7828550Y2830600D01*
X7841420Y2834830D01*
X7852680Y2847530D01*
X7860730Y2866580D01*
X7863940Y2885630D01*
Y2908920D01*
X7860730Y2927970D01*
X7852680Y2944900D01*
X7843030Y2953370D01*
X7831770Y2957600D01*
X7818900Y2953370D01*
X7809250Y2944900D01*
X7802810Y2932200D01*
X7799600Y2915260D01*
X7802810Y2900450D01*
X7810860Y2885630D01*
X7820510Y2877160D01*
X7831770Y2875050D01*
X7844640Y2879280D01*
X7854290Y2889870D01*
X7863940Y2908920D01*
G01X8529000Y2602000D02*
G03I-254000J0D01*
G01X7666840Y3630600D02*
Y3757600D01*
X7699010D01*
X7711880Y3751250D01*
X7721530Y3742780D01*
X7729580Y3730090D01*
X7736010Y3715260D01*
X7737620Y3694100D01*
X7736010Y3672930D01*
X7729580Y3658110D01*
X7721530Y3645410D01*
X7711880Y3636950D01*
X7699010Y3630600D01*
X7666840D01*
G01X7831770D02*
X7843030Y3632720D01*
X7855900Y3639060D01*
X7863940Y3649650D01*
X7867160Y3664470D01*
X7863940Y3679280D01*
X7854290Y3691980D01*
X7839810Y3698330D01*
X7823730D01*
X7814070Y3702570D01*
X7806030Y3713150D01*
X7802810Y3727970D01*
X7807640Y3742780D01*
X7818900Y3753370D01*
X7831770Y3757600D01*
X7844640Y3753370D01*
X7855900Y3742780D01*
X7860730Y3727970D01*
X7857510Y3713150D01*
X7849470Y3702570D01*
X7839810Y3698330D01*
X7823730D01*
X7809250Y3691980D01*
X7799600Y3679280D01*
X7796380Y3664470D01*
X7799600Y3649650D01*
X7807640Y3639060D01*
X7820510Y3632720D01*
X7831770Y3630600D01*
G01X8529000Y3402000D02*
G03I-254000J0D01*
G01X7666840Y4430600D02*
Y4557600D01*
X7699010D01*
X7711880Y4551250D01*
X7721530Y4542780D01*
X7729580Y4530090D01*
X7736010Y4515260D01*
X7737620Y4494100D01*
X7736010Y4472930D01*
X7729580Y4458110D01*
X7721530Y4445410D01*
X7711880Y4436950D01*
X7699010Y4430600D01*
X7666840D01*
G01X7828550D02*
X7831770Y4458110D01*
X7836600Y4481400D01*
X7843030Y4502570D01*
X7851070Y4525850D01*
X7863940Y4557600D01*
X7799600D01*
G01X8529000Y4202000D02*
G03I-254000J0D01*
G01X7666840Y5205600D02*
Y5332600D01*
X7699010D01*
X7711880Y5326250D01*
X7721530Y5317780D01*
X7729580Y5305090D01*
X7736010Y5290260D01*
X7737620Y5269100D01*
X7736010Y5247930D01*
X7729580Y5233110D01*
X7721530Y5220410D01*
X7711880Y5211950D01*
X7699010Y5205600D01*
X7666840D01*
G01X7801200Y5258510D02*
X7812470Y5273330D01*
X7822120Y5281800D01*
X7834990Y5286030D01*
X7846250Y5281800D01*
X7854290Y5273330D01*
X7860730Y5260630D01*
X7862340Y5245820D01*
X7860730Y5233110D01*
X7854290Y5220410D01*
X7844640Y5209830D01*
X7833380Y5205600D01*
X7820510Y5209830D01*
X7809250Y5222530D01*
X7802810Y5241580D01*
X7801200Y5262750D01*
X7804420Y5290260D01*
X7809250Y5305090D01*
X7817290Y5319900D01*
X7828550Y5330480D01*
X7839810Y5332600D01*
X7851070Y5328370D01*
X7859120Y5317780D01*
G01X8529000Y4977000D02*
G03I-254000J0D01*
G01X7666840Y5980600D02*
Y6107600D01*
X7699010D01*
X7711880Y6101250D01*
X7721530Y6092780D01*
X7729580Y6080090D01*
X7736010Y6065260D01*
X7737620Y6044100D01*
X7736010Y6022930D01*
X7729580Y6008110D01*
X7721530Y5995410D01*
X7711880Y5986950D01*
X7699010Y5980600D01*
X7666840D01*
G01X7796380Y5999650D02*
X7806030Y5989060D01*
X7817290Y5982720D01*
X7831770Y5980600D01*
X7846250Y5984830D01*
X7857510Y5993300D01*
X7865550Y6008110D01*
X7867160Y6025050D01*
X7863940Y6041980D01*
X7855900Y6052570D01*
X7844640Y6061030D01*
X7833380Y6063150D01*
X7822120Y6061030D01*
X7807640Y6052570D01*
X7812470Y6107600D01*
X7855900D01*
G01X8529000Y5752000D02*
G03I-254000J0D01*
G01X7666840Y6755600D02*
Y6882600D01*
X7699010D01*
X7711880Y6876250D01*
X7721530Y6867780D01*
X7729580Y6855090D01*
X7736010Y6840260D01*
X7737620Y6819100D01*
X7736010Y6797930D01*
X7729580Y6783110D01*
X7721530Y6770410D01*
X7711880Y6761950D01*
X7699010Y6755600D01*
X7666840D01*
G01X7851070D02*
Y6882600D01*
X7791550Y6791580D01*
X7871990D01*
G01X8529000Y6527000D02*
G03I-254000J0D01*
G01Y7302000D02*
G03I-254000J0D01*
G01Y8077000D02*
G03I-254000J0D01*
G01X7666840Y7530600D02*
Y7657600D01*
X7699010D01*
X7711880Y7651250D01*
X7721530Y7642780D01*
X7729580Y7630090D01*
X7736010Y7615260D01*
X7737620Y7594100D01*
X7736010Y7572930D01*
X7729580Y7558110D01*
X7721530Y7545410D01*
X7711880Y7536950D01*
X7699010Y7530600D01*
X7666840D01*
G01X7796380Y7556000D02*
X7806030Y7541180D01*
X7818900Y7532720D01*
X7833380Y7530600D01*
X7846250Y7532720D01*
X7859120Y7543300D01*
X7867160Y7556000D01*
X7868770Y7568700D01*
X7865550Y7583510D01*
X7854290Y7594100D01*
X7843030Y7598330D01*
X7828550D01*
G01X7843030D02*
X7852680Y7604680D01*
X7860730Y7615260D01*
X7863940Y7627970D01*
X7860730Y7640670D01*
X7852680Y7651250D01*
X7838200Y7657600D01*
X7823730Y7655480D01*
X7809250Y7647020D01*
G01X8529000Y8827000D02*
G03I-254000J0D01*
G01X7666840Y8305600D02*
Y8432600D01*
X7699010D01*
X7711880Y8426250D01*
X7721530Y8417780D01*
X7729580Y8405090D01*
X7736010Y8390260D01*
X7737620Y8369100D01*
X7736010Y8347930D01*
X7729580Y8333110D01*
X7721530Y8320410D01*
X7711880Y8311950D01*
X7699010Y8305600D01*
X7666840D01*
G01X7801200Y8411430D02*
X7810860Y8424130D01*
X7822120Y8430480D01*
X7834990Y8432600D01*
X7851070Y8428370D01*
X7862340Y8417780D01*
X7865550Y8405090D01*
X7863940Y8392380D01*
X7857510Y8381800D01*
X7825340Y8360630D01*
X7810860Y8345820D01*
X7801200Y8324650D01*
X7797990Y8305600D01*
X7865550D01*
G01X7666840Y9055600D02*
Y9182600D01*
X7699010D01*
X7711880Y9176250D01*
X7721530Y9167780D01*
X7729580Y9155090D01*
X7736010Y9140260D01*
X7737620Y9119100D01*
X7736010Y9097930D01*
X7729580Y9083110D01*
X7721530Y9070410D01*
X7711880Y9061950D01*
X7699010Y9055600D01*
X7666840D01*
G01X7831770D02*
Y9182600D01*
X7812470Y9157200D01*
G01Y9055600D02*
X7851070D01*
G01X9413290Y1850000D02*
Y1977000D01*
X9453500D01*
X9466370Y1970650D01*
X9474420Y1962180D01*
X9477630Y1945250D01*
X9474420Y1928320D01*
X9464760Y1917730D01*
X9453500Y1911380D01*
X9413290D01*
G01X9453500D02*
X9477630Y1850000D01*
G01X9575000D02*
Y1977000D01*
X9555700Y1951600D01*
G01Y1850000D02*
X9594300D01*
G01X9704540D02*
Y1977000D01*
X9685240Y1951600D01*
G01Y1850000D02*
X9723840D01*
G01X9402400Y1827000D02*
X10113600D01*
Y1573000D01*
X9402400D01*
Y1827000D01*
G01X9413290Y2625000D02*
Y2752000D01*
X9453500D01*
X9466370Y2745650D01*
X9474420Y2737180D01*
X9477630Y2720250D01*
X9474420Y2703320D01*
X9464760Y2692730D01*
X9453500Y2686380D01*
X9413290D01*
G01X9453500D02*
X9477630Y2625000D01*
G01X9575000D02*
Y2752000D01*
X9555700Y2726600D01*
G01Y2625000D02*
X9594300D01*
G01X9704540Y2752000D02*
X9691670Y2747770D01*
X9682020Y2737180D01*
X9675580Y2724490D01*
X9670760Y2707550D01*
X9669150Y2688500D01*
X9670760Y2669450D01*
X9675580Y2652510D01*
X9682020Y2639810D01*
X9691670Y2629230D01*
X9704540Y2625000D01*
X9717410Y2629230D01*
X9727060Y2639810D01*
X9733500Y2652510D01*
X9738320Y2669450D01*
X9739930Y2688500D01*
X9738320Y2707550D01*
X9733500Y2724490D01*
X9727060Y2737180D01*
X9717410Y2747770D01*
X9704540Y2752000D01*
G01X9402400Y2602000D02*
X10113600D01*
Y2348000D01*
X9402400D01*
Y2602000D01*
G01X9403060Y3425000D02*
Y3552000D01*
X9443270D01*
X9456140Y3545650D01*
X9464190Y3537180D01*
X9467400Y3520250D01*
X9464190Y3503320D01*
X9454530Y3492730D01*
X9443270Y3486380D01*
X9403060D01*
G01X9443270D02*
X9467400Y3425000D01*
G01X9537420Y3439810D02*
X9548680Y3429230D01*
X9561550Y3425000D01*
X9574420Y3429230D01*
X9585680Y3441930D01*
X9593730Y3460980D01*
X9596940Y3480030D01*
Y3503320D01*
X9593730Y3522370D01*
X9585680Y3539300D01*
X9576030Y3547770D01*
X9564770Y3552000D01*
X9551900Y3547770D01*
X9542250Y3539300D01*
X9535810Y3526600D01*
X9532600Y3509660D01*
X9535810Y3494850D01*
X9543860Y3480030D01*
X9553510Y3471560D01*
X9564770Y3469450D01*
X9577640Y3473680D01*
X9587290Y3484270D01*
X9596940Y3503320D01*
G01X9402400Y3402000D02*
X10113600D01*
Y3148000D01*
X9402400D01*
Y3402000D01*
G01X9403060Y4225000D02*
Y4352000D01*
X9443270D01*
X9456140Y4345650D01*
X9464190Y4337180D01*
X9467400Y4320250D01*
X9464190Y4303320D01*
X9454530Y4292730D01*
X9443270Y4286380D01*
X9403060D01*
G01X9443270D02*
X9467400Y4225000D01*
G01X9564770D02*
X9576030Y4227120D01*
X9588900Y4233460D01*
X9596940Y4244050D01*
X9600160Y4258870D01*
X9596940Y4273680D01*
X9587290Y4286380D01*
X9572810Y4292730D01*
X9556730D01*
X9547070Y4296970D01*
X9539030Y4307550D01*
X9535810Y4322370D01*
X9540640Y4337180D01*
X9551900Y4347770D01*
X9564770Y4352000D01*
X9577640Y4347770D01*
X9588900Y4337180D01*
X9593730Y4322370D01*
X9590510Y4307550D01*
X9582470Y4296970D01*
X9572810Y4292730D01*
X9556730D01*
X9542250Y4286380D01*
X9532600Y4273680D01*
X9529380Y4258870D01*
X9532600Y4244050D01*
X9540640Y4233460D01*
X9553510Y4227120D01*
X9564770Y4225000D01*
G01X9402400Y4202000D02*
X10113600D01*
Y3948000D01*
X9402400D01*
Y4202000D01*
G01X9403060Y5000000D02*
Y5127000D01*
X9443270D01*
X9456140Y5120650D01*
X9464190Y5112180D01*
X9467400Y5095250D01*
X9464190Y5078320D01*
X9454530Y5067730D01*
X9443270Y5061380D01*
X9403060D01*
G01X9443270D02*
X9467400Y5000000D01*
G01X9561550D02*
X9564770Y5027510D01*
X9569600Y5050800D01*
X9576030Y5071970D01*
X9584070Y5095250D01*
X9596940Y5127000D01*
X9532600D01*
G01X9402400Y4977000D02*
X10113600D01*
Y4723000D01*
X9402400D01*
Y4977000D01*
G01X9403060Y5775000D02*
Y5902000D01*
X9443270D01*
X9456140Y5895650D01*
X9464190Y5887180D01*
X9467400Y5870250D01*
X9464190Y5853320D01*
X9454530Y5842730D01*
X9443270Y5836380D01*
X9403060D01*
G01X9443270D02*
X9467400Y5775000D01*
G01X9534200Y5827910D02*
X9545470Y5842730D01*
X9555120Y5851200D01*
X9567990Y5855430D01*
X9579250Y5851200D01*
X9587290Y5842730D01*
X9593730Y5830030D01*
X9595340Y5815220D01*
X9593730Y5802510D01*
X9587290Y5789810D01*
X9577640Y5779230D01*
X9566380Y5775000D01*
X9553510Y5779230D01*
X9542250Y5791930D01*
X9535810Y5810980D01*
X9534200Y5832150D01*
X9537420Y5859660D01*
X9542250Y5874490D01*
X9550290Y5889300D01*
X9561550Y5899880D01*
X9572810Y5902000D01*
X9584070Y5897770D01*
X9592120Y5887180D01*
G01X9402400Y5752000D02*
X10113600D01*
Y5498000D01*
X9402400D01*
Y5752000D01*
G01X9403060Y6550000D02*
Y6677000D01*
X9443270D01*
X9456140Y6670650D01*
X9464190Y6662180D01*
X9467400Y6645250D01*
X9464190Y6628320D01*
X9454530Y6617730D01*
X9443270Y6611380D01*
X9403060D01*
G01X9443270D02*
X9467400Y6550000D01*
G01X9529380Y6569050D02*
X9539030Y6558460D01*
X9550290Y6552120D01*
X9564770Y6550000D01*
X9579250Y6554230D01*
X9590510Y6562700D01*
X9598550Y6577510D01*
X9600160Y6594450D01*
X9596940Y6611380D01*
X9588900Y6621970D01*
X9577640Y6630430D01*
X9566380Y6632550D01*
X9555120Y6630430D01*
X9540640Y6621970D01*
X9545470Y6677000D01*
X9588900D01*
G01X9402400Y6527000D02*
X10113600D01*
Y6273000D01*
X9402400D01*
Y6527000D01*
G01X9403060Y7325000D02*
Y7452000D01*
X9443270D01*
X9456140Y7445650D01*
X9464190Y7437180D01*
X9467400Y7420250D01*
X9464190Y7403320D01*
X9454530Y7392730D01*
X9443270Y7386380D01*
X9403060D01*
G01X9443270D02*
X9467400Y7325000D01*
G01X9584070D02*
Y7452000D01*
X9524550Y7360980D01*
X9604990D01*
G01X9402400Y7302000D02*
X10113600D01*
Y7048000D01*
X9402400D01*
Y7302000D01*
G01X9403060Y8100000D02*
Y8227000D01*
X9443270D01*
X9456140Y8220650D01*
X9464190Y8212180D01*
X9467400Y8195250D01*
X9464190Y8178320D01*
X9454530Y8167730D01*
X9443270Y8161380D01*
X9403060D01*
G01X9443270D02*
X9467400Y8100000D01*
G01X9534200Y8205830D02*
X9543860Y8218530D01*
X9555120Y8224880D01*
X9567990Y8227000D01*
X9584070Y8222770D01*
X9595340Y8212180D01*
X9598550Y8199490D01*
X9596940Y8186780D01*
X9590510Y8176200D01*
X9558340Y8155030D01*
X9543860Y8140220D01*
X9534200Y8119050D01*
X9530990Y8100000D01*
X9598550D01*
G01X9402400Y8077000D02*
X10113600D01*
Y7823000D01*
X9402400D01*
Y8077000D01*
G01X9403060Y8850000D02*
Y8977000D01*
X9443270D01*
X9456140Y8970650D01*
X9464190Y8962180D01*
X9467400Y8945250D01*
X9464190Y8928320D01*
X9454530Y8917730D01*
X9443270Y8911380D01*
X9403060D01*
G01X9443270D02*
X9467400Y8850000D01*
G01X9564770D02*
Y8977000D01*
X9545470Y8951600D01*
G01Y8850000D02*
X9584070D01*
G01X9402400Y8827000D02*
X10113600D01*
Y8573000D01*
X9402400D01*
Y8827000D01*
M02*
