G04 ================== begin FILE IDENTIFICATION RECORD ==================*
G04 Layout Name:  RING_COUNTER.brd*
G04 Film Name:    TOP*
G04 File Format:  Gerber RS274X*
G04 File Origin:  Cadence Allegro 17.2-060*
G04 Origin Date:  Thu Jan 28 12:04:32 2021*
G04 *
G04 Layer:  BOARD GEOMETRY/DIMENSION*
G04 Layer:  BOARD GEOMETRY/DESIGN_OUTLINE*
G04 Layer:  BOARD GEOMETRY/OUTLINE*
G04 Layer:  ETCH/TOP*
G04 Layer:  PIN/TOP*
G04 Layer:  VIA CLASS/TOP*
G04 *
G04 Offset:    (0.0000 0.0000)*
G04 Mirror:    No*
G04 Mode:      Positive*
G04 Rotation:  0*
G04 FullContactRelief:  No*
G04 UndefLineWidth:     0.0000*
G04 ================== end FILE IDENTIFICATION RECORD ====================*
%FSLAX55Y55*MOMM*%
%IR0*IPPOS*OFA0.00000B0.00000*MIA0B0*SFA1.00000B1.00000*%
%ADD10C,.635*%
%ADD14C,.6096*%
%ADD11C,1.524*%
%ADD13C,1.651*%
%ADD12R,1.524X1.524*%
%ADD15C,.5*%
%ADD16C,1.*%
G75*
%LPD*%
G75*
G54D10*
X500000Y500000D03*
Y9500000D03*
X11500000Y500000D03*
Y9500000D03*
G54D11*
X1143000Y5207000D03*
X2363000Y4325000D03*
Y5087000D03*
Y4833000D03*
Y4579000D03*
Y5849000D03*
Y5595000D03*
Y5341000D03*
X3621000Y2650000D03*
X3125000Y5087000D03*
Y4833000D03*
Y4579000D03*
Y5849000D03*
Y5595000D03*
Y5341000D03*
X3875000Y2650000D03*
X5338000Y4575000D03*
Y4829000D03*
Y5083000D03*
Y5337000D03*
Y5591000D03*
Y5845000D03*
Y6099000D03*
Y6353000D03*
X6100000Y5083000D03*
Y4829000D03*
Y5845000D03*
Y5591000D03*
Y5337000D03*
Y6353000D03*
Y6099000D03*
X8275000Y1954000D03*
Y1700000D03*
Y2729000D03*
Y2475000D03*
Y3529000D03*
Y3275000D03*
Y4329000D03*
Y4075000D03*
Y5104000D03*
Y4850000D03*
Y5879000D03*
Y5625000D03*
Y6654000D03*
Y6400000D03*
Y7429000D03*
Y7175000D03*
Y8204000D03*
Y7950000D03*
Y8954000D03*
Y8700000D03*
G54D12*
X1143000Y4953000D03*
X3125000Y4325000D03*
X6100000Y4575000D03*
G54D13*
X3875000Y3550000D03*
Y4566000D03*
X9250000Y1700000D03*
Y2475000D03*
Y3275000D03*
Y4075000D03*
Y4850000D03*
Y5625000D03*
Y6400000D03*
Y7175000D03*
Y7950000D03*
Y8700000D03*
X10266000Y1700000D03*
Y2475000D03*
Y3275000D03*
Y4075000D03*
Y4850000D03*
Y5625000D03*
Y6400000D03*
Y7175000D03*
Y7950000D03*
Y8700000D03*
G54D14*
X4572000Y5270500D03*
X6100000Y5083000D03*
Y5337000D03*
X7048500Y5778500D03*
X7302500Y5651500D03*
X7048500Y6540500D03*
X7556500Y5461000D03*
G54D15*
G01X3125000Y4325000D02*
Y3860000D01*
X3429000Y3556000D01*
X3748740D01*
X3754740Y3550000D01*
X3875000D01*
G01X3125000Y5087000D02*
X5220100D01*
X5224100Y5083000D01*
X5338000D01*
G01X3125000Y4579000D02*
X3741740D01*
X3754740Y4566000D01*
X3875000D01*
G01X3125000Y4833000D02*
X3608000D01*
X3875000Y4566000D01*
G01Y2650000D02*
Y3550000D01*
G01X4572000Y5270500D02*
Y5588000D01*
X5083000Y6099000D01*
X5338000D01*
G01Y6353000D02*
X5651500Y6039500D01*
Y2984500D01*
X5907000Y2729000D01*
X8275000D01*
G01X5338000Y5845000D02*
X5524500Y5658500D01*
Y2921000D01*
X6491500Y1954000D01*
X8275000D01*
G01X6100000Y5845000D02*
X5778500Y5523500D01*
Y3746500D01*
X5996000Y3529000D01*
X8275000D01*
G01X6100000Y5591000D02*
X5905500Y5396500D01*
Y4445000D01*
X6021500Y4329000D01*
X8275000D01*
G01X7556500Y5461000D02*
X6924500Y4829000D01*
X6100000D01*
G01Y4575000D02*
X6213900D01*
X6216900Y4572000D01*
X7048500D01*
X7580500Y5104000D01*
X8275000D01*
G01X6100000Y5083000D02*
X6734000D01*
X7302500Y5651500D01*
G01X6100000Y5337000D02*
X6607000D01*
X7048500Y5778500D01*
G01X6100000Y6099000D02*
X6213900D01*
X6216900Y6096000D01*
X6985000D01*
X7543000Y6654000D01*
X8275000D01*
G01Y7429000D02*
X8161100D01*
X8160600Y7429500D01*
X7937500D01*
X7048500Y6540500D01*
G01X8275000Y1700000D02*
X9250000D01*
G01X8275000Y2475000D02*
X9250000D01*
G01X8275000Y3275000D02*
X9250000D01*
G01X8275000Y4075000D02*
X9250000D01*
G01X8275000Y4850000D02*
X9250000D01*
G01X8275000Y5625000D02*
X9250000D01*
G01X8275000Y6400000D02*
X9250000D01*
G01X8275000Y7175000D02*
X9250000D01*
G01X8275000Y7950000D02*
X9250000D01*
G01X8275000Y8700000D02*
X9250000D01*
G54D16*
G01X1143000Y4953000D02*
Y4635500D01*
X1460500Y4318000D01*
X2217100D01*
X2224100Y4325000D01*
X2363000D01*
G01D02*
Y2907500D01*
X3111500Y2159000D01*
X5270500D01*
X5341220Y2229720D01*
Y2927500D01*
X5335990Y2932730D01*
Y3036270D01*
X5341220Y3041500D01*
Y4432880D01*
X5338000Y4436100D01*
Y4575000D01*
M02*
