G04 ================== begin FILE IDENTIFICATION RECORD ==================*
G04 Layout Name:  210112.brd*
G04 Film Name:    BOTTOM*
G04 File Format:  Gerber RS274X*
G04 File Origin:  Cadence Allegro 17.2-P019*
G04 Origin Date:  Tue Jan 19 15:51:33 2021*
G04 *
G04 Layer:  ETCH/BOTTOM*
G04 Layer:  PIN/BOTTOM*
G04 Layer:  VIA CLASS/BOTTOM*
G04 *
G04 Offset:    (0.0000 0.0000)*
G04 Mirror:    No*
G04 Mode:      Positive*
G04 Rotation:  0*
G04 FullContactRelief:  No*
G04 UndefLineWidth:     0.0000*
G04 ================== end FILE IDENTIFICATION RECORD ====================*
%FSLAX55Y55*MOMM*%
%IR0*IPPOS*OFA0.00000B0.00000*MIA0B0*SFA1.00000B1.00000*%
%ADD10C,.635*%
%ADD11C,1.524*%
%ADD13C,1.651*%
%ADD12R,1.524X1.524*%
%ADD14C,.5*%
%ADD15C,1.7784*%
G75*
%LPD*%
G75*
G36*
G01X754020Y500000D02*
Y754020D01*
X500000D01*
Y2173780D01*
X576200D01*
G03X626220Y2223800I0J50020D01*
G01Y2376200D01*
G03X576200Y2426220I-50020J0D01*
G01X500000D01*
Y2465080D01*
G03Y2642920I0J88920D01*
G01Y2681780D01*
G03Y2934220I0J126220D01*
G01Y4245980D01*
X754020D01*
Y4500000D01*
X5245980D01*
Y4245980D01*
X5500000D01*
Y2934810D01*
G02X5487540Y2924920I-10159J5D01*
G03X5476200Y2926220I-11330J-48721D01*
G01X5323800D01*
G03X5273780Y2876200I0J-50020D01*
G01Y2723800D01*
G03X5323800Y2673780I50020J0D01*
G01X5476200D01*
G03X5487540Y2675080I10J50021D01*
G02X5500000Y2665190I2301J-9895D01*
G01Y754020D01*
X5245980D01*
Y500000D01*
X754020D01*
G37*
%LPC*%
G75*
G36*
G01X2273780Y2823800D02*
Y2976200D01*
G02X2323800Y3026220I50020J0D01*
G01X2476200D01*
G02X2526220Y2976200I0J-50020D01*
G01Y2823800D01*
G02X2476200Y2773780I-50020J0D01*
G01X2323800D01*
G02X2273780Y2823800I0J50020D01*
G37*
G36*
G01X1714360Y1274260D02*
X1714780Y1271690D01*
G02X1605690Y1380780I-130780J-21690D01*
G01X1608260Y1380360D01*
X1816980Y1589070D01*
Y2036490D01*
G02X1774460Y2092000I75022J101506D01*
G03X1755540I-9460J-3703D01*
G02X1635400Y2264190I-117539J45998D01*
G03X1642370Y2281530I-215J10157D01*
G01X1274980Y2648930D01*
Y3540700D01*
G02X1425020I75020J109300D01*
G01Y2711070D01*
X1873250Y2262840D01*
X1875730Y2263170D01*
G02X2009540Y2184000I16269J-125168D01*
G03X2028460I9460J3703D01*
G02X2263540I117540J-46000D01*
G03X2282460I9460J3703D01*
G02X2397400Y2264190I117537J-46002D01*
G03X2404370Y2281530I-215J10157D01*
G01X1910750Y2775160D01*
X1908270Y2774830D01*
G02X1774460Y2854000I-16269J125168D01*
G03X1755540I-9460J-3703D01*
G02Y2946000I-117540J46000D01*
G03X1774460I9460J3703D01*
G02X1908270Y3025170I117541J-45998D01*
G01X1910750Y3024840D01*
X2386630Y3500720D01*
G03X2378490Y3518020I-7185J7184D01*
G02X2497980Y3637510I-12490J131980D01*
G03X2515280Y3629370I10116J-955D01*
G01X2645970Y3760060D01*
X3430030D01*
X3459740Y3730360D01*
X3462310Y3730780D01*
G02X3351430Y3599870I21689J-130783D01*
G03X3341270Y3610020I-10160J-10D01*
G01X2708110D01*
X2016840Y2918750D01*
X2017170Y2916270D01*
G02Y2883730I-125170J-16270D01*
G01X2016840Y2881250D01*
X2675020Y2223070D01*
Y1359300D01*
G02X2524980I-75020J-109300D01*
G01Y2064410D01*
G03X2506270Y2069890I-10159J-4D01*
G02X2282460Y2092000I-106269J68108D01*
G03X2263540I-9460J-3703D01*
G02X2028460I-117540J46000D01*
G03X2009540I-9460J-3703D01*
G02X1967020Y2036490I-117542J45996D01*
G01Y1526930D01*
X1714360Y1274260D01*
G37*
G36*
G01X4063960Y1239500D02*
G02X3815220Y1321690I-117957J60503D01*
G01X3815640Y1324260D01*
X3716980Y1422930D01*
Y2036490D01*
G02X3674460Y2092000I75022J101506D01*
G03X3655540I-9460J-3703D01*
G02X3535400Y2264190I-117539J45998D01*
G03X3542370Y2281530I-215J10157D01*
G01X3311780Y2512130D01*
Y2993700D01*
X3993100Y3675020D01*
X4390700D01*
G02Y3524980I109300J-75020D01*
G01X4055240D01*
X3568510Y3038250D01*
G03X3572890Y3021300I7186J-7184D01*
G02X3476900Y2789560I-34880J-121303D01*
G03X3461820Y2780670I-4919J-8892D01*
G01Y2574270D01*
X3773250Y2262840D01*
X3775730Y2263170D01*
G02X3909540Y2184000I16269J-125168D01*
G03X3928460I9460J3703D01*
G02X4163540I117540J-46000D01*
G03X4182460I9460J3703D01*
G02X4339960Y2257730I117541J-45999D01*
G03X4350360Y2274550I3213J9638D01*
G01X3970980Y2653930D01*
Y2798490D01*
G02X4154860Y2963890I75024J101506D01*
G03X4173780Y2969030I8762J5141D01*
G01Y2976200D01*
G02X4223800Y3026220I50020J0D01*
G01X4376200D01*
G02X4426220Y2976200I0J-50020D01*
G01Y2823800D01*
G02X4376200Y2773780I-50020J0D01*
G01X4223800D01*
G02X4173780Y2823800I0J50020D01*
G01Y2830970D01*
G03X4154860Y2836110I-10158J-1D01*
G02X4121020Y2798490I-108858J63890D01*
G01Y2716070D01*
X4526220Y2310870D01*
Y1520130D01*
X4330360Y1324260D01*
X4330780Y1321690D01*
G02X4082040Y1239500I-130783J-21687D01*
G03X4063960I-9040J-4637D01*
G37*
G54D15*
X2146000Y2900000D03*
X3792000D03*
X5400000Y2546000D03*
%LPD*%
G75*
G36*
G01X4082040Y1360500D02*
G02X4063960I-9040J4637D01*
G03X3924310Y1430780I-117958J-60502D01*
G01X3921740Y1430360D01*
X3867020Y1485070D01*
Y2036490D01*
G03X3909540Y2092000I-75022J101506D01*
G02X3928460I9460J-3703D01*
G03X4163540I117540J46000D01*
G02X4182460I9460J-3703D01*
G03X4361100Y2027560I117537J46002D01*
G02X4376180Y2018670I4919J-8892D01*
G01Y1582270D01*
X4224260Y1430360D01*
X4221690Y1430780D01*
G03X4082040Y1360500I-21692J-130782D01*
G37*
G54D10*
X500000Y500000D03*
Y4500000D03*
X5500000Y500000D03*
Y4500000D03*
G54D11*
X500000Y2808000D03*
Y2554000D03*
X1638000Y2138000D03*
X1892000D03*
X2146000D03*
X1638000Y2900000D03*
X1892000D03*
X2146000D03*
X2400000Y2138000D03*
X3538000D03*
Y2900000D03*
X3792000Y2138000D03*
X4046000D03*
X4300000D03*
X3792000Y2900000D03*
X4046000D03*
X5400000Y2546000D03*
G54D12*
X500000Y2300000D03*
X2400000Y2900000D03*
X4300000D03*
X5400000Y2800000D03*
G54D13*
X1350000Y3650000D03*
X1584000Y1250000D03*
X2600000D03*
X2366000Y3650000D03*
X3484000Y3600000D03*
X3946000Y1300000D03*
X4200000D03*
X4500000Y3600000D03*
G54D14*
G01X500000Y2460000D02*
Y2554000D01*
G01D02*
Y2648000D01*
G01Y2554000D02*
X594000D01*
G01X1892000Y2138000D02*
X1350000Y2680000D01*
Y3650000D01*
G01X1892000Y2138000D02*
Y1558000D01*
X1584000Y1250000D01*
G01X2600000D02*
Y2192000D01*
X1892000Y2900000D01*
G01D02*
X2677040Y3685040D01*
X3398960D01*
X3484000Y3600000D01*
G01X2146000Y2806000D02*
Y2900000D01*
G01D02*
Y2994000D01*
G01X2052000Y2900000D02*
X2146000D01*
G01D02*
X2240000D01*
G01X3792000Y2138000D02*
X3386800Y2543200D01*
Y2962630D01*
X4024170Y3600000D01*
X4500000D01*
G01X4200000Y1300000D02*
X4451200Y1551200D01*
Y2279800D01*
X4046000Y2685000D01*
Y2900000D01*
G01X3792000Y2138000D02*
Y1454000D01*
X3946000Y1300000D01*
G01X3792000Y2806000D02*
Y2900000D01*
G01D02*
Y2994000D01*
G01X3698000Y2900000D02*
X3792000D01*
G01D02*
X3886000D01*
G01X5400000Y2452000D02*
Y2546000D01*
G01D02*
Y2640000D01*
G01X5306000Y2546000D02*
X5400000D01*
G01D02*
X5494000D01*
M02*
