G04 ================== begin FILE IDENTIFICATION RECORD ==================*
G04 Layout Name:  210112.brd*
G04 Film Name:    Silkscreen_Top*
G04 File Format:  Gerber RS274X*
G04 File Origin:  Cadence Allegro 17.2-P019*
G04 Origin Date:  Tue Jan 19 15:51:33 2021*
G04 *
G04 Layer:  REF DES/SILKSCREEN_TOP*
G04 Layer:  PACKAGE GEOMETRY/SILKSCREEN_TOP*
G04 *
G04 Offset:    (0.0000 0.0000)*
G04 Mirror:    No*
G04 Mode:      Positive*
G04 Rotation:  0*
G04 FullContactRelief:  No*
G04 UndefLineWidth:     0.1000*
G04 ================== end FILE IDENTIFICATION RECORD ====================*
%FSLAX55Y55*MOMM*%
%IR0*IPPOS*OFA0.00000B0.00000*MIA0B0*SFA1.00000B1.00000*%
%ADD10C,.1*%
G75*
%LPD*%
G75*
G54D10*
G01X627000Y2173000D02*
X373000D01*
Y2935000D01*
X627000D01*
Y2173000D01*
G01X347560Y3009900D02*
X355600Y2997200D01*
X365250Y2988730D01*
X376510Y2984500D01*
X389380Y2988730D01*
X399030Y2997200D01*
X408690Y3009900D01*
X411900Y3026830D01*
Y3111500D01*
G01X478700Y3090330D02*
X488360Y3103030D01*
X499620Y3109380D01*
X512490Y3111500D01*
X528570Y3107270D01*
X539840Y3096680D01*
X543050Y3083990D01*
X541440Y3071280D01*
X535010Y3060700D01*
X502840Y3039530D01*
X488360Y3024720D01*
X478700Y3003550D01*
X475490Y2984500D01*
X543050D01*
G01X2447600Y1123000D02*
X1736400D01*
Y1377000D01*
X2447600D01*
Y1123000D01*
G01X1744560Y1460500D02*
Y1587500D01*
X1784770D01*
X1797640Y1581150D01*
X1805690Y1572680D01*
X1808900Y1555750D01*
X1805690Y1538820D01*
X1796030Y1528230D01*
X1784770Y1521880D01*
X1744560D01*
G01X1784770D02*
X1808900Y1460500D01*
G01X1875700Y1566330D02*
X1885360Y1579030D01*
X1896620Y1585380D01*
X1909490Y1587500D01*
X1925570Y1583270D01*
X1936840Y1572680D01*
X1940050Y1559990D01*
X1938440Y1547280D01*
X1932010Y1536700D01*
X1899840Y1515530D01*
X1885360Y1500720D01*
X1875700Y1479550D01*
X1872490Y1460500D01*
X1940050D01*
G01X2527000Y2798400D02*
Y2646000D01*
X2463500Y2582500D01*
Y2455500D01*
X2527000Y2392000D01*
Y2239600D01*
X1511000D01*
Y2798400D01*
X2527000D01*
G01X1487340Y3175000D02*
Y3083980D01*
X1493770Y3064930D01*
X1506640Y3052230D01*
X1522730Y3048000D01*
X1538820Y3052230D01*
X1551690Y3064930D01*
X1558120Y3083980D01*
Y3175000D01*
G01X1652270Y3048000D02*
Y3175000D01*
X1632970Y3149600D01*
G01Y3048000D02*
X1671570D01*
G01X1502400Y3777000D02*
X2213600D01*
Y3523000D01*
X1502400D01*
Y3777000D01*
G01X1490560Y3810000D02*
Y3937000D01*
X1530770D01*
X1543640Y3930650D01*
X1551690Y3922180D01*
X1554900Y3905250D01*
X1551690Y3888320D01*
X1542030Y3877730D01*
X1530770Y3871380D01*
X1490560D01*
G01X1530770D02*
X1554900Y3810000D01*
G01X1652270D02*
Y3937000D01*
X1632970Y3911600D01*
G01Y3810000D02*
X1671570D01*
G01X4427000Y2798400D02*
Y2646000D01*
X4363500Y2582500D01*
Y2455500D01*
X4427000Y2392000D01*
Y2239600D01*
X3411000D01*
Y2798400D01*
X4427000D01*
G01X3392340Y3175000D02*
Y3083980D01*
X3398770Y3064930D01*
X3411640Y3052230D01*
X3427730Y3048000D01*
X3443820Y3052230D01*
X3456690Y3064930D01*
X3463120Y3083980D01*
Y3175000D01*
G01X3526700Y3153830D02*
X3536360Y3166530D01*
X3547620Y3172880D01*
X3560490Y3175000D01*
X3576570Y3170770D01*
X3587840Y3160180D01*
X3591050Y3147490D01*
X3589440Y3134780D01*
X3583010Y3124200D01*
X3550840Y3103030D01*
X3536360Y3088220D01*
X3526700Y3067050D01*
X3523490Y3048000D01*
X3591050D01*
G01X4347600Y3473000D02*
X3636400D01*
Y3727000D01*
X4347600D01*
Y3473000D01*
G01X3649560Y3810000D02*
Y3937000D01*
X3689770D01*
X3702640Y3930650D01*
X3710690Y3922180D01*
X3713900Y3905250D01*
X3710690Y3888320D01*
X3701030Y3877730D01*
X3689770Y3871380D01*
X3649560D01*
G01X3689770D02*
X3713900Y3810000D01*
G01X3775880Y3835400D02*
X3785530Y3820580D01*
X3798400Y3812120D01*
X3812880Y3810000D01*
X3825750Y3812120D01*
X3838620Y3822700D01*
X3846660Y3835400D01*
X3848270Y3848100D01*
X3845050Y3862910D01*
X3833790Y3873500D01*
X3822530Y3877730D01*
X3808050D01*
G01X3822530D02*
X3832180Y3884080D01*
X3840230Y3894660D01*
X3843440Y3907370D01*
X3840230Y3920070D01*
X3832180Y3930650D01*
X3817700Y3937000D01*
X3803230Y3934880D01*
X3788750Y3926420D01*
G01X4327000Y1173000D02*
X3819000D01*
Y1427000D01*
X4327000D01*
Y1173000D01*
G01X3907620Y1640420D02*
X3897970Y1646770D01*
X3886710Y1651000D01*
X3873840D01*
X3859360Y1644650D01*
X3848100Y1634070D01*
X3840060Y1621370D01*
X3833620Y1600200D01*
X3832010Y1581150D01*
X3835230Y1562100D01*
X3840060Y1549400D01*
X3849710Y1536700D01*
X3860970Y1528230D01*
X3872230Y1524000D01*
X3883490D01*
X3894750Y1528230D01*
X3904400Y1534580D01*
X3912450Y1543050D01*
G01X4001770Y1524000D02*
Y1651000D01*
X3982470Y1625600D01*
G01Y1524000D02*
X4021070D01*
G01X5273000Y2927000D02*
X5527000D01*
Y2419000D01*
X5273000D01*
Y2927000D01*
G01X5300560Y3009900D02*
X5308600Y2997200D01*
X5318250Y2988730D01*
X5329510Y2984500D01*
X5342380Y2988730D01*
X5352030Y2997200D01*
X5361690Y3009900D01*
X5364900Y3026830D01*
Y3111500D01*
G01X5462270Y2984500D02*
Y3111500D01*
X5442970Y3086100D01*
G01Y2984500D02*
X5481570D01*
M02*
