G04 ================== begin FILE IDENTIFICATION RECORD ==================*
G04 Layout Name:  210112.brd*
G04 Film Name:    TOP*
G04 File Format:  Gerber RS274X*
G04 File Origin:  Cadence Allegro 17.2-P019*
G04 Origin Date:  Tue Jan 19 15:51:33 2021*
G04 *
G04 Layer:  ETCH/TOP*
G04 Layer:  PIN/TOP*
G04 Layer:  VIA CLASS/TOP*
G04 *
G04 Offset:    (0.0000 0.0000)*
G04 Mirror:    No*
G04 Mode:      Positive*
G04 Rotation:  0*
G04 FullContactRelief:  No*
G04 UndefLineWidth:     0.0000*
G04 ================== end FILE IDENTIFICATION RECORD ====================*
%FSLAX55Y55*MOMM*%
%IR0*IPPOS*OFA0.00000B0.00000*MIA0B0*SFA1.00000B1.00000*%
%ADD10C,.635*%
%ADD11C,1.524*%
%ADD13C,1.651*%
%ADD12R,1.524X1.524*%
%ADD14C,.5*%
%ADD15C,1.*%
G75*
%LPD*%
G75*
G54D10*
X500000Y500000D03*
Y4500000D03*
X5500000Y500000D03*
Y4500000D03*
G54D11*
X500000Y2808000D03*
Y2554000D03*
X1638000Y2138000D03*
X1892000D03*
X2146000D03*
X1638000Y2900000D03*
X1892000D03*
X2146000D03*
X2400000Y2138000D03*
X3538000D03*
Y2900000D03*
X3792000Y2138000D03*
X4046000D03*
X4300000D03*
X3792000Y2900000D03*
X4046000D03*
X5400000Y2546000D03*
G54D12*
X500000Y2300000D03*
X2400000Y2900000D03*
X4300000D03*
X5400000Y2800000D03*
G54D13*
X1350000Y3650000D03*
X1584000Y1250000D03*
X2600000D03*
X2366000Y3650000D03*
X3484000Y3600000D03*
X3946000Y1300000D03*
X4200000D03*
X4500000Y3600000D03*
G54D14*
G01X2366000Y3650000D02*
X2650500Y3365500D01*
X3580500D01*
X4046000Y2900000D01*
G01X4500000Y3600000D02*
X5197140Y2902860D01*
X5297140D01*
X5400000Y2800000D01*
G54D15*
G01X2146000Y2138000D02*
X1849500Y1841500D01*
X1270000D01*
X811500Y2300000D01*
X500000D01*
G01Y2808000D02*
X1407100D01*
X1499100Y2900000D01*
X1638000D01*
G01X4046000Y2138000D02*
X3644000Y2540000D01*
X2548000D01*
X2146000Y2138000D01*
G01X3538000Y2900000D02*
X3263000Y3175000D01*
X1913000D01*
X1638000Y2900000D01*
M02*
